<svg width="396" height="122.39650724782469" viewBox="0 0 150 46.36231335144874" xmlns="http://www.w3.org/2000/svg"  class="looka-1j8o68f"><defs id="SvgjsDefs1181"></defs><g id="SvgjsG1182" featurekey="nameFeature-0" transform="matrix(1.5190796852111816,0,0,1.5190796852111816,0.0000028974146021814982,-16.284531966711718)" fill="#ffffff"><path d="M3.12 15.079999999999998 l0 15.56 l27.64 0 l0 9.36 l-30.76 0 l0 -3.12 l27.68 0 l0 -3.12 l-27.68 0 l0 -21.8 l9.36 0 l0 15.6 l-3.12 0 l0 -12.48 l-3.12 0 z M64.792 11.96 l0 9.36 l-21.24 0 l0 3.12 l15.76 0 l0 3.12 l-18.88 0 l0 -9.36 l21.24 0 l0 -3.12 l-24.36 0 l0 21.8 l24.36 0 l0 -3.12 l-21.24 0 l0 -3.12 l24.36 0 l0 9.36 l-30.6 0 l0 -28.04 l30.6 0 z M83.504 10.719999999999999 c8.4 0 15.24 6.84 15.24 15.28 s-6.84 15.24 -15.24 15.24 c-8.44 0 -15.28 -6.8 -15.28 -15.24 s6.84 -15.28 15.28 -15.28 z M83.504 38.16 c6.72 0 12.16 -5.44 12.16 -12.16 s-5.44 -12.2 -12.16 -12.2 c-6.76 0 -12.2 5.48 -12.2 12.2 s5.44 12.16 12.2 12.16 z M83.504 16.88 c5 0 9.08 4.12 9.08 9.12 s-4.08 9.08 -9.08 9.08 s-9.12 -4.08 -9.12 -9.08 s4.12 -9.12 9.12 -9.12 z M83.504 32 c3.32 0 6 -2.68 6 -6 c0 -3.36 -2.68 -6.04 -6 -6.04 c-3.36 0 -6.04 2.68 -6.04 6.04 c0 3.32 2.68 6 6.04 6 z"></path></g></svg>